<svg width="932" height="32" viewBox="0 0 932 32" fill="none" xmlns="http://www.w3.org/2000/svg">
<path d="M27.0613 15.9386C27.2011 16.078 27.3121 16.2436 27.3878 16.4259C27.4635 16.6082 27.5024 16.8037 27.5024 17.0011C27.5024 17.1986 27.4635 17.394 27.3878 17.5764C27.3121 17.7587 27.2011 17.9243 27.0613 18.0636L17.0613 28.0636C16.9219 28.2035 16.7563 28.3144 16.574 28.3901C16.3917 28.4658 16.1962 28.5048 15.9988 28.5048C15.8013 28.5048 15.6059 28.4658 15.4235 28.3901C15.2412 28.3144 15.0756 28.2035 14.9363 28.0636L4.93626 18.0636C4.79673 17.9241 4.68605 17.7585 4.61053 17.5762C4.53502 17.3939 4.49615 17.1985 4.49615 17.0011C4.49615 16.8038 4.53502 16.6084 4.61053 16.4261C4.68605 16.2438 4.79673 16.0782 4.93626 15.9386C5.07579 15.7991 5.24143 15.6884 5.42374 15.6129C5.60604 15.5374 5.80143 15.4985 5.99876 15.4985C6.19608 15.4985 6.39147 15.5374 6.57378 15.6129C6.75608 15.6884 6.92173 15.7991 7.06126 15.9386L16 24.8749L24.9388 15.9349C25.0783 15.7957 25.2439 15.6853 25.4262 15.6102C25.6084 15.535 25.8037 15.4965 26.0008 15.4968C26.1979 15.4972 26.393 15.5364 26.575 15.6122C26.757 15.688 26.9222 15.7989 27.0613 15.9386ZM14.9363 18.0636C15.0756 18.2035 15.2412 18.3144 15.4235 18.3901C15.6059 18.4658 15.8013 18.5048 15.9988 18.5048C16.1962 18.5048 16.3917 18.4658 16.574 18.3901C16.7563 18.3144 16.9219 18.2035 17.0613 18.0636L27.0613 8.06364C27.2008 7.92411 27.3115 7.75846 27.387 7.57616C27.4625 7.39385 27.5014 7.19846 27.5014 7.00114C27.5014 6.80381 27.4625 6.60842 27.387 6.42612C27.3115 6.24381 27.2008 6.07817 27.0613 5.93864C26.9217 5.79911 26.7561 5.68843 26.5738 5.61291C26.3915 5.5374 26.1961 5.49854 25.9988 5.49854C25.8014 5.49854 25.606 5.5374 25.4237 5.61291C25.2414 5.68843 25.0758 5.79911 24.9363 5.93864L16 14.8749L7.06126 5.93864C6.77946 5.65684 6.39727 5.49854 5.99876 5.49854C5.60024 5.49854 5.21805 5.65684 4.93626 5.93864C4.65446 6.22043 4.49615 6.60262 4.49615 7.00114C4.49615 7.39965 4.65446 7.78184 4.93626 8.06364L14.9363 18.0636Z" fill="#E2E4E9"/>
<path d="M108 9H106V8C106 7.20435 105.684 6.44129 105.121 5.87868C104.559 5.31607 103.796 5 103 5H85C84.2044 5 83.4413 5.31607 82.8787 5.87868C82.3161 6.44129 82 7.20435 82 8V20C82 20.7956 82.3161 21.5587 82.8787 22.1213C83.4413 22.6839 84.2044 23 85 23H99V24C99 24.7956 99.3161 25.5587 99.8787 26.1213C100.441 26.6839 101.204 27 102 27H108C108.796 27 109.559 26.6839 110.121 26.1213C110.684 25.5587 111 24.7956 111 24V12C111 11.2044 110.684 10.4413 110.121 9.87868C109.559 9.31607 108.796 9 108 9ZM85 21C84.7348 21 84.4804 20.8946 84.2929 20.7071C84.1054 20.5196 84 20.2652 84 20V8C84 7.73478 84.1054 7.48043 84.2929 7.29289C84.4804 7.10536 84.7348 7 85 7H103C103.265 7 103.52 7.10536 103.707 7.29289C103.895 7.48043 104 7.73478 104 8V9H102C101.204 9 100.441 9.31607 99.8787 9.87868C99.3161 10.4413 99 11.2044 99 12V21H85ZM109 24C109 24.2652 108.895 24.5196 108.707 24.7071C108.52 24.8946 108.265 25 108 25H102C101.735 25 101.48 24.8946 101.293 24.7071C101.105 24.5196 101 24.2652 101 24V12C101 11.7348 101.105 11.4804 101.293 11.2929C101.48 11.1054 101.735 11 102 11H108C108.265 11 108.52 11.1054 108.707 11.2929C108.895 11.4804 109 11.7348 109 12V24ZM97 26C97 26.2652 96.8946 26.5196 96.7071 26.7071C96.5196 26.8946 96.2652 27 96 27H91C90.7348 27 90.4804 26.8946 90.2929 26.7071C90.1054 26.5196 90 26.2652 90 26C90 25.7348 90.1054 25.4804 90.2929 25.2929C90.4804 25.1054 90.7348 25 91 25H96C96.2652 25 96.5196 25.1054 96.7071 25.2929C96.8946 25.4804 97 25.7348 97 26ZM107 14C107 14.2652 106.895 14.5196 106.707 14.7071C106.52 14.8946 106.265 15 106 15H104C103.735 15 103.48 14.8946 103.293 14.7071C103.105 14.5196 103 14.2652 103 14C103 13.7348 103.105 13.4804 103.293 13.2929C103.48 13.1054 103.735 13 104 13H106C106.265 13 106.52 13.1054 106.707 13.2929C106.895 13.4804 107 13.7348 107 14Z" fill="#E2E4E9"/>
<path d="M186 17H166C165.47 17 164.961 17.2107 164.586 17.5858C164.211 17.9609 164 18.4696 164 19V25C164 25.5304 164.211 26.0391 164.586 26.4142C164.961 26.7893 165.47 27 166 27H186C186.53 27 187.039 26.7893 187.414 26.4142C187.789 26.0391 188 25.5304 188 25V19C188 18.4696 187.789 17.9609 187.414 17.5858C187.039 17.2107 186.53 17 186 17ZM186 25H166V19H186V25ZM186 5H166C165.47 5 164.961 5.21071 164.586 5.58579C164.211 5.96086 164 6.46957 164 7V13C164 13.5304 164.211 14.0391 164.586 14.4142C164.961 14.7893 165.47 15 166 15H186C186.53 15 187.039 14.7893 187.414 14.4142C187.789 14.0391 188 13.5304 188 13V7C188 6.46957 187.789 5.96086 187.414 5.58579C187.039 5.21071 186.53 5 186 5ZM186 13H166V7H186V13ZM184 10C184 10.2967 183.912 10.5867 183.747 10.8334C183.582 11.08 183.348 11.2723 183.074 11.3858C182.8 11.4994 182.498 11.5291 182.207 11.4712C181.916 11.4133 181.649 11.2704 181.439 11.0607C181.23 10.8509 181.087 10.5836 181.029 10.2926C180.971 10.0017 181.001 9.70006 181.114 9.42597C181.228 9.15189 181.42 8.91762 181.667 8.7528C181.913 8.58797 182.203 8.5 182.5 8.5C182.898 8.5 183.279 8.65804 183.561 8.93934C183.842 9.22064 184 9.60218 184 10ZM184 22C184 22.2967 183.912 22.5867 183.747 22.8334C183.582 23.08 183.348 23.2723 183.074 23.3858C182.8 23.4993 182.498 23.5291 182.207 23.4712C181.916 23.4133 181.649 23.2704 181.439 23.0607C181.23 22.8509 181.087 22.5836 181.029 22.2926C180.971 22.0017 181.001 21.7001 181.114 21.426C181.228 21.1519 181.42 20.9176 181.667 20.7528C181.913 20.588 182.203 20.5 182.5 20.5C182.898 20.5 183.279 20.658 183.561 20.9393C183.842 21.2206 184 21.6022 184 22Z" fill="#E2E4E9"/>
<path d="M271 16C271 17.3846 270.59 18.738 269.82 19.8893C269.051 21.0405 267.958 21.9378 266.679 22.4677C265.4 22.9975 263.992 23.1361 262.634 22.866C261.276 22.5959 260.029 21.9291 259.05 20.95L259.009 20.9063L251.515 12.4438C250.813 11.7504 249.922 11.28 248.954 11.0918C247.986 10.9037 246.984 11.0061 246.073 11.3863C245.163 11.7664 244.386 12.4073 243.839 13.2283C243.292 14.0492 243 15.0136 243 16C243 16.9864 243.292 17.9508 243.839 18.7718C244.386 19.5927 245.163 20.2336 246.073 20.6138C246.984 20.9939 247.986 21.0964 248.954 20.9082C249.922 20.72 250.813 20.2497 251.515 19.5563L252.58 18.3538C252.667 18.2553 252.773 18.1749 252.891 18.1172C253.009 18.0596 253.137 18.0257 253.269 18.0177C253.4 18.0096 253.531 18.0275 253.656 18.0702C253.78 18.113 253.895 18.1798 253.993 18.2669C254.092 18.354 254.172 18.4596 254.23 18.5778C254.287 18.6959 254.321 18.8242 254.329 18.9555C254.337 19.0867 254.319 19.2182 254.277 19.3425C254.234 19.4668 254.167 19.5815 254.08 19.68L252.994 20.9063L252.952 20.95C251.973 21.9289 250.726 22.5955 249.368 22.8656C248.011 23.1356 246.603 22.9969 245.324 22.4671C244.045 21.9373 242.952 21.0401 242.183 19.8889C241.414 18.7378 241.003 17.3845 241.003 16C241.003 14.6156 241.414 13.2622 242.183 12.1111C242.952 10.96 244.045 10.0628 245.324 9.53293C246.603 9.0031 248.011 8.86443 249.368 9.13447C250.726 9.40451 251.973 10.0711 252.952 11.05L252.994 11.0938L260.487 19.5563C261.189 20.2497 262.08 20.72 263.048 20.9082C264.017 21.0964 265.019 20.9939 265.929 20.6138C266.839 20.2336 267.617 19.5927 268.164 18.7718C268.71 17.9508 269.002 16.9864 269.002 16C269.002 15.0136 268.71 14.0492 268.164 13.2283C267.617 12.4073 266.839 11.7664 265.929 11.3863C265.019 11.0061 264.017 10.9037 263.048 11.0918C262.08 11.28 261.189 11.7504 260.487 12.4438L259.422 13.6463C259.247 13.8452 258.999 13.9661 258.734 13.9824C258.469 13.9987 258.208 13.909 258.009 13.7331C257.81 13.5573 257.69 13.3096 257.673 13.0446C257.657 12.7796 257.747 12.5189 257.922 12.32L259.009 11.0938L259.05 11.05C260.029 10.071 261.276 9.40418 262.634 9.13405C263.992 8.86391 265.4 9.00253 266.679 9.53239C267.958 10.0622 269.051 10.9595 269.82 12.1108C270.59 13.262 271 14.6155 271 16Z" fill="#E2E4E9"/>
<path d="M345 8V21C345 21.2652 344.895 21.5196 344.707 21.7071C344.52 21.8946 344.265 22 344 22C343.735 22 343.48 21.8946 343.293 21.7071C343.105 21.5196 343 21.2652 343 21V10.4138L328.708 24.7075C328.52 24.8951 328.265 25.0006 328 25.0006C327.735 25.0006 327.48 24.8951 327.293 24.7075C327.105 24.5199 326.999 24.2654 326.999 24C326.999 23.7346 327.105 23.4801 327.293 23.2925L341.586 9H331C330.735 9 330.48 8.89464 330.293 8.70711C330.105 8.51957 330 8.26522 330 8C330 7.73478 330.105 7.48043 330.293 7.29289C330.48 7.10536 330.735 7 331 7H344C344.265 7 344.52 7.10536 344.707 7.29289C344.895 7.48043 345 7.73478 345 8Z" fill="#E2E4E9"/>
<path d="M428 6H404C403.735 6 403.48 6.10536 403.293 6.29289C403.105 6.48043 403 6.73478 403 7V24C403 24.5304 403.211 25.0391 403.586 25.4142C403.961 25.7893 404.47 26 405 26H427C427.53 26 428.039 25.7893 428.414 25.4142C428.789 25.0391 429 24.5304 429 24V7C429 6.73478 428.895 6.48043 428.707 6.29289C428.52 6.10536 428.265 6 428 6ZM425.429 8L416 16.6437L406.571 8H425.429ZM427 24H405V9.27375L415.324 18.7375C415.508 18.9069 415.75 19.0008 416 19.0008C416.25 19.0008 416.492 18.9069 416.676 18.7375L427 9.27375V24Z" fill="#E2E4E9"/>
<path d="M506.039 9.46002C506.344 8.47401 506.442 7.43537 506.327 6.40958C506.211 5.3838 505.884 4.39312 505.366 3.50002C505.278 3.34796 505.152 3.22171 505 3.13393C504.848 3.04616 504.676 2.99998 504.5 3.00002C503.335 2.99758 502.186 3.2676 501.144 3.7885C500.102 4.3094 499.197 5.06674 498.5 6.00002H495.5C494.803 5.06674 493.898 4.3094 492.856 3.7885C491.814 3.2676 490.665 2.99758 489.5 3.00002C489.324 2.99998 489.152 3.04616 489 3.13393C488.848 3.22171 488.722 3.34796 488.634 3.50002C488.116 4.39312 487.789 5.3838 487.673 6.40958C487.558 7.43537 487.656 8.47401 487.961 9.46002C487.343 10.5384 487.012 11.7572 487 13V14C487.002 15.692 487.616 17.3261 488.729 18.6006C489.842 19.875 491.379 20.7038 493.055 20.9338C492.371 21.8093 491.999 22.8888 492 24V25H489C488.204 25 487.441 24.6839 486.879 24.1213C486.316 23.5587 486 22.7957 486 22C486 21.3434 485.871 20.6932 485.619 20.0866C485.368 19.48 485 18.9288 484.536 18.4645C484.071 18.0002 483.52 17.6319 482.913 17.3806C482.307 17.1293 481.657 17 481 17C480.735 17 480.48 17.1054 480.293 17.2929C480.105 17.4804 480 17.7348 480 18C480 18.2652 480.105 18.5196 480.293 18.7071C480.48 18.8947 480.735 19 481 19C481.796 19 482.559 19.3161 483.121 19.8787C483.684 20.4413 484 21.2044 484 22C484 23.3261 484.527 24.5979 485.464 25.5356C486.402 26.4732 487.674 27 489 27H492V29C492 29.2652 492.105 29.5196 492.293 29.7071C492.48 29.8947 492.735 30 493 30C493.265 30 493.52 29.8947 493.707 29.7071C493.895 29.5196 494 29.2652 494 29V24C494 23.2044 494.316 22.4413 494.879 21.8787C495.441 21.3161 496.204 21 497 21C497.796 21 498.559 21.3161 499.121 21.8787C499.684 22.4413 500 23.2044 500 24V29C500 29.2652 500.105 29.5196 500.293 29.7071C500.48 29.8947 500.735 30 501 30C501.265 30 501.52 29.8947 501.707 29.7071C501.895 29.5196 502 29.2652 502 29V24C502.001 22.8888 501.629 21.8093 500.945 20.9338C502.621 20.7038 504.158 19.875 505.271 18.6006C506.384 17.3261 506.998 15.692 507 14V13C506.988 11.7572 506.657 10.5384 506.039 9.46002ZM505 14C505 15.3261 504.473 16.5979 503.536 17.5356C502.598 18.4732 501.326 19 500 19H494C492.674 19 491.402 18.4732 490.464 17.5356C489.527 16.5979 489 15.3261 489 14V13C489.012 12 489.312 11.0247 489.863 10.19C489.965 10.0547 490.032 9.89538 490.056 9.7272C490.08 9.55902 490.061 9.38748 490 9.22877C489.74 8.55701 489.614 7.84046 489.631 7.12018C489.648 6.39989 489.807 5.69003 490.099 5.03127C490.917 5.11931 491.705 5.39041 492.405 5.82448C493.104 6.25855 493.697 6.84446 494.139 7.53877C494.229 7.67965 494.353 7.79569 494.499 7.87627C494.646 7.95685 494.81 7.99939 494.977 8.00002H499.021C499.189 8.00002 499.354 7.95777 499.502 7.87716C499.649 7.79656 499.773 7.68018 499.864 7.53877C500.306 6.84439 500.898 6.25844 501.598 5.82436C502.297 5.39029 503.085 5.11922 503.904 5.03127C504.195 5.69019 504.354 6.40014 504.37 7.12043C504.387 7.84071 504.261 8.55718 504 9.22877C503.94 9.38596 503.919 9.55576 503.941 9.72275C503.963 9.88974 504.026 10.0486 504.125 10.185C504.681 11.0197 504.985 11.9971 505 13V14Z" fill="#E2E4E9"/>
<path d="M587 3H565C564.47 3 563.961 3.21071 563.586 3.58579C563.211 3.96086 563 4.46957 563 5V27C563 27.5304 563.211 28.0391 563.586 28.4142C563.961 28.7893 564.47 29 565 29H587C587.53 29 588.039 28.7893 588.414 28.4142C588.789 28.0391 589 27.5304 589 27V5C589 4.46957 588.789 3.96086 588.414 3.58579C588.039 3.21071 587.53 3 587 3ZM587 27H565V5H587V27ZM572 14V22C572 22.2652 571.895 22.5196 571.707 22.7071C571.52 22.8946 571.265 23 571 23C570.735 23 570.48 22.8946 570.293 22.7071C570.105 22.5196 570 22.2652 570 22V14C570 13.7348 570.105 13.4804 570.293 13.2929C570.48 13.1054 570.735 13 571 13C571.265 13 571.52 13.1054 571.707 13.2929C571.895 13.4804 572 13.7348 572 14ZM583 17.5V22C583 22.2652 582.895 22.5196 582.707 22.7071C582.52 22.8946 582.265 23 582 23C581.735 23 581.48 22.8946 581.293 22.7071C581.105 22.5196 581 22.2652 581 22V17.5C581 16.837 580.737 16.2011 580.268 15.7322C579.799 15.2634 579.163 15 578.5 15C577.837 15 577.201 15.2634 576.732 15.7322C576.263 16.2011 576 16.837 576 17.5V22C576 22.2652 575.895 22.5196 575.707 22.7071C575.52 22.8946 575.265 23 575 23C574.735 23 574.48 22.8946 574.293 22.7071C574.105 22.5196 574 22.2652 574 22V14C574.001 13.7551 574.092 13.5191 574.256 13.3369C574.42 13.1546 574.645 13.0388 574.888 13.0114C575.131 12.9839 575.376 13.0468 575.577 13.188C575.777 13.3292 575.918 13.539 575.974 13.7775C576.65 13.3186 577.439 13.0526 578.255 13.0081C579.071 12.9637 579.884 13.1424 580.607 13.5251C581.329 13.9078 581.933 14.48 582.355 15.1803C582.777 15.8806 583 16.6825 583 17.5ZM572.5 10.5C572.5 10.7967 572.412 11.0867 572.247 11.3334C572.082 11.58 571.848 11.7723 571.574 11.8858C571.3 11.9994 570.998 12.0291 570.707 11.9712C570.416 11.9133 570.149 11.7704 569.939 11.5607C569.73 11.3509 569.587 11.0836 569.529 10.7926C569.471 10.5017 569.501 10.2001 569.614 9.92597C569.728 9.65189 569.92 9.41762 570.167 9.2528C570.413 9.08797 570.703 9 571 9C571.398 9 571.779 9.15804 572.061 9.43934C572.342 9.72064 572.5 10.1022 572.5 10.5Z" fill="#E2E4E9"/>
<path d="M656 10C654.813 10 653.653 10.3519 652.667 11.0112C651.68 11.6705 650.911 12.6075 650.457 13.7039C650.003 14.8003 649.884 16.0067 650.115 17.1705C650.347 18.3344 650.918 19.4035 651.757 20.2426C652.596 21.0818 653.666 21.6532 654.829 21.8847C655.993 22.1162 657.2 21.9974 658.296 21.5433C659.392 21.0892 660.33 20.3201 660.989 19.3334C661.648 18.3467 662 17.1867 662 16C661.998 14.4092 661.366 12.884 660.241 11.7592C659.116 10.6343 657.591 10.0017 656 10ZM656 20C655.209 20 654.436 19.7654 653.778 19.3259C653.12 18.8864 652.607 18.2616 652.304 17.5307C652.002 16.7998 651.923 15.9956 652.077 15.2196C652.231 14.4437 652.612 13.731 653.172 13.1716C653.731 12.6122 654.444 12.2312 655.22 12.0769C655.996 11.9225 656.8 12.0017 657.531 12.3045C658.262 12.6072 658.886 13.1199 659.326 13.7777C659.765 14.4355 660 15.2089 660 16C660 17.0609 659.579 18.0783 658.828 18.8284C658.078 19.5786 657.061 20 656 20ZM662 3H650C648.144 3.00199 646.365 3.74012 645.052 5.05245C643.74 6.36477 643.002 8.14409 643 10V22C643.002 23.8559 643.74 25.6352 645.052 26.9476C646.365 28.2599 648.144 28.998 650 29H662C663.856 28.998 665.635 28.2599 666.948 26.9476C668.26 25.6352 668.998 23.8559 669 22V10C668.998 8.14409 668.26 6.36477 666.948 5.05245C665.635 3.74012 663.856 3.00199 662 3ZM667 22C667 23.3261 666.473 24.5979 665.536 25.5355C664.598 26.4732 663.326 27 662 27H650C648.674 27 647.402 26.4732 646.464 25.5355C645.527 24.5979 645 23.3261 645 22V10C645 8.67392 645.527 7.40215 646.464 6.46447C647.402 5.52678 648.674 5 650 5H662C663.326 5 664.598 5.52678 665.536 6.46447C666.473 7.40215 667 8.67392 667 10V22ZM664 9.5C664 9.79667 663.912 10.0867 663.747 10.3334C663.582 10.58 663.348 10.7723 663.074 10.8858C662.8 10.9994 662.498 11.0291 662.207 10.9712C661.916 10.9133 661.649 10.7704 661.439 10.5607C661.23 10.3509 661.087 10.0836 661.029 9.79264C660.971 9.50166 661.001 9.20006 661.114 8.92597C661.228 8.65189 661.42 8.41762 661.667 8.2528C661.913 8.08797 662.203 8 662.5 8C662.898 8 663.279 8.15804 663.561 8.43934C663.842 8.72064 664 9.10218 664 9.5Z" fill="#E2E4E9"/>
</svg>
